<svg id="visual" viewBox="0 0 1920 1080" width="1920" height="1080" xmlns="http://www.w3.org/2000/svg" xmlns:xlink="http://www.w3.org/1999/xlink" version="1.1"><rect x="0" y="0" width="1920" height="1080" fill="#001220"></rect><defs><linearGradient id="grad1_0" x1="43.8%" y1="100%" x2="100%" y2="0%"><stop offset="14.444444444444446%" stop-color="#3cfa6a" stop-opacity="1"></stop><stop offset="85.55555555555554%" stop-color="#3cfa6a" stop-opacity="1"></stop></linearGradient></defs><defs><linearGradient id="grad1_1" x1="43.8%" y1="100%" x2="100%" y2="0%"><stop offset="14.444444444444446%" stop-color="#3cfa6a" stop-opacity="1"></stop><stop offset="85.55555555555554%" stop-color="#00d985" stop-opacity="1"></stop></linearGradient></defs><defs><linearGradient id="grad1_2" x1="43.8%" y1="100%" x2="100%" y2="0%"><stop offset="14.444444444444446%" stop-color="#00b693" stop-opacity="1"></stop><stop offset="85.55555555555554%" stop-color="#00d985" stop-opacity="1"></stop></linearGradient></defs><defs><linearGradient id="grad1_3" x1="43.8%" y1="100%" x2="100%" y2="0%"><stop offset="14.444444444444446%" stop-color="#00b693" stop-opacity="1"></stop><stop offset="85.55555555555554%" stop-color="#009393" stop-opacity="1"></stop></linearGradient></defs><defs><linearGradient id="grad1_4" x1="43.8%" y1="100%" x2="100%" y2="0%"><stop offset="14.444444444444446%" stop-color="#007085" stop-opacity="1"></stop><stop offset="85.55555555555554%" stop-color="#009393" stop-opacity="1"></stop></linearGradient></defs><defs><linearGradient id="grad1_5" x1="43.8%" y1="100%" x2="100%" y2="0%"><stop offset="14.444444444444446%" stop-color="#007085" stop-opacity="1"></stop><stop offset="85.55555555555554%" stop-color="#004e6b" stop-opacity="1"></stop></linearGradient></defs><defs><linearGradient id="grad1_6" x1="43.8%" y1="100%" x2="100%" y2="0%"><stop offset="14.444444444444446%" stop-color="#002e47" stop-opacity="1"></stop><stop offset="85.55555555555554%" stop-color="#004e6b" stop-opacity="1"></stop></linearGradient></defs><defs><linearGradient id="grad1_7" x1="43.8%" y1="100%" x2="100%" y2="0%"><stop offset="14.444444444444446%" stop-color="#002e47" stop-opacity="1"></stop><stop offset="85.55555555555554%" stop-color="#001220" stop-opacity="1"></stop></linearGradient></defs><defs><linearGradient id="grad2_0" x1="0%" y1="100%" x2="56.3%" y2="0%"><stop offset="14.444444444444446%" stop-color="#3cfa6a" stop-opacity="1"></stop><stop offset="85.55555555555554%" stop-color="#3cfa6a" stop-opacity="1"></stop></linearGradient></defs><defs><linearGradient id="grad2_1" x1="0%" y1="100%" x2="56.3%" y2="0%"><stop offset="14.444444444444446%" stop-color="#00d985" stop-opacity="1"></stop><stop offset="85.55555555555554%" stop-color="#3cfa6a" stop-opacity="1"></stop></linearGradient></defs><defs><linearGradient id="grad2_2" x1="0%" y1="100%" x2="56.3%" y2="0%"><stop offset="14.444444444444446%" stop-color="#00d985" stop-opacity="1"></stop><stop offset="85.55555555555554%" stop-color="#00b693" stop-opacity="1"></stop></linearGradient></defs><defs><linearGradient id="grad2_3" x1="0%" y1="100%" x2="56.3%" y2="0%"><stop offset="14.444444444444446%" stop-color="#009393" stop-opacity="1"></stop><stop offset="85.55555555555554%" stop-color="#00b693" stop-opacity="1"></stop></linearGradient></defs><defs><linearGradient id="grad2_4" x1="0%" y1="100%" x2="56.3%" y2="0%"><stop offset="14.444444444444446%" stop-color="#009393" stop-opacity="1"></stop><stop offset="85.55555555555554%" stop-color="#007085" stop-opacity="1"></stop></linearGradient></defs><defs><linearGradient id="grad2_5" x1="0%" y1="100%" x2="56.3%" y2="0%"><stop offset="14.444444444444446%" stop-color="#004e6b" stop-opacity="1"></stop><stop offset="85.55555555555554%" stop-color="#007085" stop-opacity="1"></stop></linearGradient></defs><defs><linearGradient id="grad2_6" x1="0%" y1="100%" x2="56.3%" y2="0%"><stop offset="14.444444444444446%" stop-color="#004e6b" stop-opacity="1"></stop><stop offset="85.55555555555554%" stop-color="#002e47" stop-opacity="1"></stop></linearGradient></defs><defs><linearGradient id="grad2_7" x1="0%" y1="100%" x2="56.3%" y2="0%"><stop offset="14.444444444444446%" stop-color="#001220" stop-opacity="1"></stop><stop offset="85.55555555555554%" stop-color="#002e47" stop-opacity="1"></stop></linearGradient></defs><g transform="translate(1920, 1080)"><path d="M-702 0C-649.7 -73.3 -597.4 -146.6 -571.9 -236.9C-546.4 -327.1 -547.7 -434.3 -496.4 -496.4C-445 -558.5 -341 -575.6 -249.5 -602.4C-158 -629.1 -79 -665.6 0 -702L0 0Z" fill="#002033"></path><path d="M-614.2 0C-568.5 -64.2 -522.7 -128.3 -500.4 -207.3C-478.1 -286.2 -479.3 -380 -434.3 -434.3C-389.4 -488.7 -298.4 -503.7 -218.3 -527.1C-138.2 -550.5 -69.1 -582.4 0 -614.2L0 0Z" fill="#003e5a"></path><path d="M-526.5 0C-487.3 -55 -448 -110 -428.9 -177.7C-409.8 -245.3 -410.8 -325.7 -372.3 -372.3C-333.8 -418.9 -255.8 -431.7 -187.1 -451.8C-118.5 -471.9 -59.2 -499.2 0 -526.5L0 0Z" fill="#005f79"></path><path d="M-438.7 0C-406.1 -45.8 -373.4 -91.7 -357.4 -148.1C-341.5 -204.4 -342.3 -271.4 -310.2 -310.2C-278.2 -349.1 -213.1 -359.8 -155.9 -376.5C-98.7 -393.2 -49.4 -416 0 -438.7L0 0Z" fill="#00818e"></path><path d="M-351 0C-324.8 -36.7 -298.7 -73.3 -285.9 -118.4C-273.2 -163.6 -273.9 -217.1 -248.2 -248.2C-222.5 -279.3 -170.5 -287.8 -124.8 -301.2C-79 -314.6 -39.5 -332.8 0 -351L0 0Z" fill="#00a595"></path><path d="M-263.2 0C-243.6 -27.5 -224 -55 -214.5 -88.8C-204.9 -122.7 -205.4 -162.9 -186.1 -186.1C-166.9 -209.4 -127.9 -215.9 -93.6 -225.9C-59.2 -235.9 -29.6 -249.6 0 -263.2L0 0Z" fill="#00c88e"></path><path d="M-175.5 0C-162.4 -18.3 -149.3 -36.7 -143 -59.2C-136.6 -81.8 -136.9 -108.6 -124.1 -124.1C-111.3 -139.6 -85.3 -143.9 -62.4 -150.6C-39.5 -157.3 -19.7 -166.4 0 -175.5L0 0Z" fill="#00ea79"></path><path d="M-87.7 0C-81.2 -9.2 -74.7 -18.3 -71.5 -29.6C-68.3 -40.9 -68.5 -54.3 -62 -62C-55.6 -69.8 -42.6 -72 -31.2 -75.3C-19.7 -78.6 -9.9 -83.2 0 -87.7L0 0Z" fill="#3cfa6a"></path></g><g transform="translate(0, 0)"><path d="M702 0C686.9 101.3 671.8 202.7 604.2 250.3C536.7 297.9 416.7 291.7 362 362C307.4 432.4 318.1 579.2 268.6 648.6C219.2 718 109.6 710 0 702L0 0Z" fill="#002033"></path><path d="M614.3 0C601 88.7 587.8 177.3 528.7 219C469.6 260.6 364.6 255.3 316.8 316.8C269 378.3 278.3 506.8 235.1 567.5C191.8 628.2 95.9 621.2 0 614.3L0 0Z" fill="#003e5a"></path><path d="M526.5 0C515.2 76 503.8 152 453.2 187.7C402.5 223.4 312.5 218.8 271.5 271.5C230.5 324.3 238.6 434.4 201.5 486.4C164.4 538.5 82.2 532.5 0 526.5L0 0Z" fill="#005f79"></path><path d="M438.8 0C429.3 63.3 419.9 126.7 377.6 156.4C335.4 186.2 260.4 182.3 226.3 226.3C192.1 270.2 198.8 362 167.9 405.4C137 448.7 68.5 443.7 0 438.8L0 0Z" fill="#00818e"></path><path d="M351 0C343.4 50.7 335.9 101.3 302.1 125.1C268.3 148.9 208.3 145.9 181 181C153.7 216.2 159 289.6 134.3 324.3C109.6 359 54.8 355 0 351L0 0Z" fill="#00a595"></path><path d="M263.3 0C257.6 38 251.9 76 226.6 93.9C201.3 111.7 156.3 109.4 135.8 135.8C115.3 162.1 119.3 217.2 100.7 243.2C82.2 269.2 41.1 266.2 0 263.3L0 0Z" fill="#00c88e"></path><path d="M175.5 0C171.7 25.3 167.9 50.7 151.1 62.6C134.2 74.5 104.2 72.9 90.5 90.5C76.8 108.1 79.5 144.8 67.2 162.1C54.8 179.5 27.4 177.5 0 175.5L0 0Z" fill="#00ea79"></path><path d="M87.8 0C85.9 12.7 84 25.3 75.5 31.3C67.1 37.2 52.1 36.5 45.3 45.3C38.4 54 39.8 72.4 33.6 81.1C27.4 89.7 13.7 88.7 0 87.8L0 0Z" fill="#3cfa6a"></path></g></svg>