<svg id="visual" viewBox="0 0 900 600" width="900" height="600" xmlns="http://www.w3.org/2000/svg" xmlns:xlink="http://www.w3.org/1999/xlink" version="1.1"><rect x="0" y="0" width="900" height="600" fill="#001220"></rect><path d="M0 349L21.5 362.7C43 376.3 86 403.7 128.8 405.5C171.7 407.3 214.3 383.7 257.2 378.8C300 374 343 388 385.8 401.5C428.7 415 471.3 428 514.2 429.7C557 431.3 600 421.7 642.8 420.8C685.7 420 728.3 428 771.2 427C814 426 857 416 878.5 411L900 406L900 601L878.5 601C857 601 814 601 771.2 601C728.3 601 685.7 601 642.8 601C600 601 557 601 514.2 601C471.3 601 428.7 601 385.8 601C343 601 300 601 257.2 601C214.3 601 171.7 601 128.8 601C86 601 43 601 21.5 601L0 601Z" fill="#69fa8c"></path><path d="M0 414L21.5 420.8C43 427.7 86 441.3 128.8 442.2C171.7 443 214.3 431 257.2 431C300 431 343 443 385.8 451.2C428.7 459.3 471.3 463.7 514.2 459C557 454.3 600 440.7 642.8 436.2C685.7 431.7 728.3 436.3 771.2 431C814 425.7 857 410.3 878.5 402.7L900 395L900 601L878.5 601C857 601 814 601 771.2 601C728.3 601 685.7 601 642.8 601C600 601 557 601 514.2 601C471.3 601 428.7 601 385.8 601C343 601 300 601 257.2 601C214.3 601 171.7 601 128.8 601C86 601 43 601 21.5 601L0 601Z" fill="#5aed83"></path><path d="M0 459L21.5 458C43 457 86 455 128.8 454C171.7 453 214.3 453 257.2 451.8C300 450.7 343 448.3 385.8 454.5C428.7 460.7 471.3 475.3 514.2 480.7C557 486 600 482 642.8 475.2C685.7 468.3 728.3 458.7 771.2 456.3C814 454 857 459 878.5 461.5L900 464L900 601L878.5 601C857 601 814 601 771.2 601C728.3 601 685.7 601 642.8 601C600 601 557 601 514.2 601C471.3 601 428.7 601 385.8 601C343 601 300 601 257.2 601C214.3 601 171.7 601 128.8 601C86 601 43 601 21.5 601L0 601Z" fill="#4ae07a"></path><path d="M0 496L21.5 495.8C43 495.7 86 495.3 128.8 493.2C171.7 491 214.3 487 257.2 490.2C300 493.3 343 503.7 385.8 510.7C428.7 517.7 471.3 521.3 514.2 516.8C557 512.3 600 499.7 642.8 497.8C685.7 496 728.3 505 771.2 507.7C814 510.3 857 506.7 878.5 504.8L900 503L900 601L878.5 601C857 601 814 601 771.2 601C728.3 601 685.7 601 642.8 601C600 601 557 601 514.2 601C471.3 601 428.7 601 385.8 601C343 601 300 601 257.2 601C214.3 601 171.7 601 128.8 601C86 601 43 601 21.5 601L0 601Z" fill="#39d371"></path><path d="M0 545L21.5 548.5C43 552 86 559 128.8 556.7C171.7 554.3 214.3 542.7 257.2 537.7C300 532.7 343 534.3 385.8 537.3C428.7 540.3 471.3 544.7 514.2 550C557 555.3 600 561.7 642.8 557.8C685.7 554 728.3 540 771.2 535.2C814 530.3 857 534.7 878.5 536.8L900 539L900 601L878.5 601C857 601 814 601 771.2 601C728.3 601 685.7 601 642.8 601C600 601 557 601 514.2 601C471.3 601 428.7 601 385.8 601C343 601 300 601 257.2 601C214.3 601 171.7 601 128.8 601C86 601 43 601 21.5 601L0 601Z" fill="#24c769"></path></svg>