<svg id="visual" viewBox="0 0 1920 1080" width="1920" height="1080" xmlns="http://www.w3.org/2000/svg" xmlns:xlink="http://www.w3.org/1999/xlink" version="1.1"><rect x="0" y="0" width="1920" height="1080" fill="#001220"></rect><path d="M0 558L83 558L83 447L167 447L167 323L250 323L250 348L334 348L334 560L417 560L417 625L501 625L501 398L584 398L584 548L668 548L668 312L751 312L751 355L835 355L835 522L918 522L918 421L1002 421L1002 462L1085 462L1085 409L1169 409L1169 530L1252 530L1252 593L1336 593L1336 298L1419 298L1419 456L1503 456L1503 550L1586 550L1586 474L1670 474L1670 573L1753 573L1753 312L1837 312L1837 318L1920 318L1920 498L1920 1081L1920 1081L1837 1081L1837 1081L1753 1081L1753 1081L1670 1081L1670 1081L1586 1081L1586 1081L1503 1081L1503 1081L1419 1081L1419 1081L1336 1081L1336 1081L1252 1081L1252 1081L1169 1081L1169 1081L1085 1081L1085 1081L1002 1081L1002 1081L918 1081L918 1081L835 1081L835 1081L751 1081L751 1081L668 1081L668 1081L584 1081L584 1081L501 1081L501 1081L417 1081L417 1081L334 1081L334 1081L250 1081L250 1081L167 1081L167 1081L83 1081L83 1081L0 1081Z" fill="#008f68"></path><path d="M0 611L83 611L83 482L167 482L167 601L250 601L250 570L334 570L334 413L417 413L417 680L501 680L501 495L584 495L584 453L668 453L668 448L751 448L751 655L835 655L835 494L918 494L918 446L1002 446L1002 547L1085 547L1085 700L1169 700L1169 615L1252 615L1252 573L1336 573L1336 659L1419 659L1419 417L1503 417L1503 642L1586 642L1586 454L1670 454L1670 649L1753 649L1753 485L1837 485L1837 434L1920 434L1920 529L1920 1081L1920 1081L1837 1081L1837 1081L1753 1081L1753 1081L1670 1081L1670 1081L1586 1081L1586 1081L1503 1081L1503 1081L1419 1081L1419 1081L1336 1081L1336 1081L1252 1081L1252 1081L1169 1081L1169 1081L1085 1081L1085 1081L1002 1081L1002 1081L918 1081L918 1081L835 1081L835 1081L751 1081L751 1081L668 1081L668 1081L584 1081L584 1081L501 1081L501 1081L417 1081L417 1081L334 1081L334 1081L250 1081L250 1081L167 1081L167 1081L83 1081L83 1081L0 1081Z" fill="#00a570"></path><path d="M0 736L83 736L83 621L167 621L167 603L250 603L250 726L334 726L334 541L417 541L417 597L501 597L501 678L584 678L584 743L668 743L668 535L751 535L751 643L835 643L835 759L918 759L918 680L1002 680L1002 619L1085 619L1085 528L1169 528L1169 693L1252 693L1252 598L1336 598L1336 779L1419 779L1419 708L1503 708L1503 589L1586 589L1586 693L1670 693L1670 547L1753 547L1753 732L1837 732L1837 554L1920 554L1920 745L1920 1081L1920 1081L1837 1081L1837 1081L1753 1081L1753 1081L1670 1081L1670 1081L1586 1081L1586 1081L1503 1081L1503 1081L1419 1081L1419 1081L1336 1081L1336 1081L1252 1081L1252 1081L1169 1081L1169 1081L1085 1081L1085 1081L1002 1081L1002 1081L918 1081L918 1081L835 1081L835 1081L751 1081L751 1081L668 1081L668 1081L584 1081L584 1081L501 1081L501 1081L417 1081L417 1081L334 1081L334 1081L250 1081L250 1081L167 1081L167 1081L83 1081L83 1081L0 1081Z" fill="#00bb76"></path><path d="M0 643L83 643L83 642L167 642L167 778L250 778L250 769L334 769L334 816L417 816L417 750L501 750L501 816L584 816L584 718L668 718L668 643L751 643L751 845L835 845L835 727L918 727L918 716L1002 716L1002 846L1085 846L1085 771L1169 771L1169 827L1252 827L1252 655L1336 655L1336 719L1419 719L1419 709L1503 709L1503 800L1586 800L1586 811L1670 811L1670 823L1753 823L1753 800L1837 800L1837 721L1920 721L1920 819L1920 1081L1920 1081L1837 1081L1837 1081L1753 1081L1753 1081L1670 1081L1670 1081L1586 1081L1586 1081L1503 1081L1503 1081L1419 1081L1419 1081L1336 1081L1336 1081L1252 1081L1252 1081L1169 1081L1169 1081L1085 1081L1085 1081L1002 1081L1002 1081L918 1081L918 1081L835 1081L835 1081L751 1081L751 1081L668 1081L668 1081L584 1081L584 1081L501 1081L501 1081L417 1081L417 1081L334 1081L334 1081L250 1081L250 1081L167 1081L167 1081L83 1081L83 1081L0 1081Z" fill="#00d17a"></path><path d="M0 864L83 864L83 788L167 788L167 755L250 755L250 869L334 869L334 875L417 875L417 853L501 853L501 882L584 882L584 783L668 783L668 816L751 816L751 960L835 960L835 783L918 783L918 923L1002 923L1002 859L1085 859L1085 795L1169 795L1169 757L1252 757L1252 911L1336 911L1336 798L1419 798L1419 869L1503 869L1503 849L1586 849L1586 802L1670 802L1670 768L1753 768L1753 789L1837 789L1837 801L1920 801L1920 881L1920 1081L1920 1081L1837 1081L1837 1081L1753 1081L1753 1081L1670 1081L1670 1081L1586 1081L1586 1081L1503 1081L1503 1081L1419 1081L1419 1081L1336 1081L1336 1081L1252 1081L1252 1081L1169 1081L1169 1081L1085 1081L1085 1081L1002 1081L1002 1081L918 1081L918 1081L835 1081L835 1081L751 1081L751 1081L668 1081L668 1081L584 1081L584 1081L501 1081L501 1081L417 1081L417 1081L334 1081L334 1081L250 1081L250 1081L167 1081L167 1081L83 1081L83 1081L0 1081Z" fill="#00e87c"></path><path d="M0 877L83 877L83 1029L167 1029L167 898L250 898L250 908L334 908L334 908L417 908L417 972L501 972L501 943L584 943L584 918L668 918L668 966L751 966L751 985L835 985L835 901L918 901L918 1004L1002 1004L1002 887L1085 887L1085 879L1169 879L1169 1005L1252 1005L1252 869L1336 869L1336 916L1419 916L1419 916L1503 916L1503 978L1586 978L1586 988L1670 988L1670 1042L1753 1042L1753 887L1837 887L1837 976L1920 976L1920 973L1920 1081L1920 1081L1837 1081L1837 1081L1753 1081L1753 1081L1670 1081L1670 1081L1586 1081L1586 1081L1503 1081L1503 1081L1419 1081L1419 1081L1336 1081L1336 1081L1252 1081L1252 1081L1169 1081L1169 1081L1085 1081L1085 1081L1002 1081L1002 1081L918 1081L918 1081L835 1081L835 1081L751 1081L751 1081L668 1081L668 1081L584 1081L584 1081L501 1081L501 1081L417 1081L417 1081L334 1081L334 1081L250 1081L250 1081L167 1081L167 1081L83 1081L83 1081L0 1081Z" fill="#00ff7c"></path></svg>