<svg id="visual" viewBox="0 0 900 600" width="900" height="600" xmlns="http://www.w3.org/2000/svg" xmlns:xlink="http://www.w3.org/1999/xlink" version="1.1"><rect x="0" y="0" width="900" height="600" fill="#001220"></rect><path d="M0 249L21.5 235.3C43 221.7 86 194.3 128.8 192.5C171.7 190.7 214.3 214.3 257.2 219.2C300 224 343 210 385.8 196.5C428.7 183 471.3 170 514.2 168.3C557 166.7 600 176.3 642.8 177.2C685.7 178 728.3 170 771.2 171C814 172 857 182 878.5 187L900 192L900 0L878.5 0C857 0 814 0 771.2 0C728.3 0 685.7 0 642.8 0C600 0 557 0 514.2 0C471.3 0 428.7 0 385.8 0C343 0 300 0 257.2 0C214.3 0 171.7 0 128.8 0C86 0 43 0 21.5 0L0 0Z" fill="#69fa8c"></path><path d="M0 184L21.5 177.2C43 170.3 86 156.7 128.8 155.8C171.7 155 214.3 167 257.2 167C300 167 343 155 385.8 146.8C428.7 138.7 471.3 134.3 514.2 139C557 143.7 600 157.3 642.8 161.8C685.7 166.3 728.3 161.7 771.2 167C814 172.3 857 187.7 878.5 195.3L900 203L900 0L878.5 0C857 0 814 0 771.2 0C728.3 0 685.7 0 642.8 0C600 0 557 0 514.2 0C471.3 0 428.7 0 385.8 0C343 0 300 0 257.2 0C214.3 0 171.7 0 128.8 0C86 0 43 0 21.5 0L0 0Z" fill="#5aed83"></path><path d="M0 139L21.5 140C43 141 86 143 128.8 144C171.7 145 214.3 145 257.2 146.2C300 147.3 343 149.7 385.8 143.5C428.7 137.3 471.3 122.7 514.2 117.3C557 112 600 116 642.8 122.8C685.7 129.7 728.3 139.3 771.2 141.7C814 144 857 139 878.5 136.5L900 134L900 0L878.5 0C857 0 814 0 771.2 0C728.3 0 685.7 0 642.8 0C600 0 557 0 514.2 0C471.3 0 428.7 0 385.8 0C343 0 300 0 257.2 0C214.3 0 171.7 0 128.8 0C86 0 43 0 21.5 0L0 0Z" fill="#4ae07a"></path><path d="M0 102L21.5 102.2C43 102.3 86 102.7 128.8 104.8C171.7 107 214.3 111 257.2 107.8C300 104.7 343 94.3 385.8 87.3C428.7 80.3 471.3 76.7 514.2 81.2C557 85.7 600 98.3 642.8 100.2C685.7 102 728.3 93 771.2 90.3C814 87.7 857 91.3 878.5 93.2L900 95L900 0L878.5 0C857 0 814 0 771.2 0C728.3 0 685.7 0 642.8 0C600 0 557 0 514.2 0C471.3 0 428.7 0 385.8 0C343 0 300 0 257.2 0C214.3 0 171.7 0 128.8 0C86 0 43 0 21.5 0L0 0Z" fill="#39d371"></path><path d="M0 53L21.5 49.5C43 46 86 39 128.8 41.3C171.7 43.7 214.3 55.3 257.2 60.3C300 65.3 343 63.7 385.8 60.7C428.7 57.7 471.3 53.3 514.2 48C557 42.7 600 36.3 642.8 40.2C685.7 44 728.3 58 771.2 62.8C814 67.7 857 63.3 878.5 61.2L900 59L900 0L878.5 0C857 0 814 0 771.2 0C728.3 0 685.7 0 642.8 0C600 0 557 0 514.2 0C471.3 0 428.7 0 385.8 0C343 0 300 0 257.2 0C214.3 0 171.7 0 128.8 0C86 0 43 0 21.5 0L0 0Z" fill="#24c769"></path></svg>